<svg class="animated" id="freepik_stories-static-website" xmlns="http://www.w3.org/2000/svg" viewBox="0 0 500 500" version="1.1" xmlns:xlink="http://www.w3.org/1999/xlink" xmlns:svgjs="http://svgjs.com/svgjs"><style>svg#freepik_stories-static-website:not(.animated) .animable {opacity: 0;}svg#freepik_stories-static-website.animated #freepik--Template--inject-6 {animation: 1s 1 forwards ease-in slideDown;animation-delay: 0s;}svg#freepik_stories-static-website.animated #freepik--Device--inject-6 {animation: 1s 1 forwards ease-in slideLeft;animation-delay: 0s;}svg#freepik_stories-static-website.animated #freepik--Gears--inject-6 {animation: 1s 1 forwards ease-in slideDown;animation-delay: 0s;}            @keyframes slideDown {                0% {                    opacity: 0;                    transform: translateY(-30px);                }                100% {                    opacity: 1;                    transform: translateY(0);                }            }                    @keyframes slideLeft {                0% {                    opacity: 0;                    transform: translateX(-30px);                }                100% {                    opacity: 1;                    transform: translateX(0);                }            }        </style><g id="freepik--background-complete--inject-6" class="animable" style="transform-origin: 250px 228.23px;"><rect x="416.78" y="398.49" width="33.12" height="0.25" style="fill: rgb(235, 235, 235); transform-origin: 433.34px 398.615px;" id="eli6iyms5mwm" class="animable"></rect><rect x="322.53" y="401.21" width="8.69" height="0.25" style="fill: rgb(235, 235, 235); transform-origin: 326.875px 401.335px;" id="elv5xf15mlr6" class="animable"></rect><rect x="396.59" y="389.21" width="19.19" height="0.25" style="fill: rgb(235, 235, 235); transform-origin: 406.185px 389.335px;" id="elfl3w860709g" class="animable"></rect><rect x="52.46" y="390.89" width="43.19" height="0.25" style="fill: rgb(235, 235, 235); transform-origin: 74.055px 391.015px;" id="elbkzaorp80bb" class="animable"></rect><rect x="104.56" y="390.89" width="6.33" height="0.25" style="fill: rgb(235, 235, 235); transform-origin: 107.725px 391.015px;" id="elgujm9gklvy" class="animable"></rect><rect x="131.47" y="395.11" width="93.68" height="0.25" style="fill: rgb(235, 235, 235); transform-origin: 178.31px 395.235px;" id="elhuacbjvixfr" class="animable"></rect><path d="M237,337.8H43.92a5.71,5.71,0,0,1-5.71-5.71V60.66A5.71,5.71,0,0,1,43.92,55H237a5.71,5.71,0,0,1,5.71,5.71V332.09A5.71,5.71,0,0,1,237,337.8ZM43.92,55.2a5.47,5.47,0,0,0-5.46,5.46V332.09a5.47,5.47,0,0,0,5.46,5.46H237a5.47,5.47,0,0,0,5.46-5.46V60.66A5.47,5.47,0,0,0,237,55.2Z" style="fill: rgb(235, 235, 235); transform-origin: 140.46px 196.4px;" id="elf866cuu07lh" class="animable"></path><path d="M453.31,337.8H260.21a5.72,5.72,0,0,1-5.71-5.71V60.66A5.72,5.72,0,0,1,260.21,55h193.1A5.71,5.71,0,0,1,459,60.66V332.09A5.71,5.71,0,0,1,453.31,337.8ZM260.21,55.2a5.47,5.47,0,0,0-5.46,5.46V332.09a5.47,5.47,0,0,0,5.46,5.46h193.1a5.47,5.47,0,0,0,5.46-5.46V60.66a5.47,5.47,0,0,0-5.46-5.46Z" style="fill: rgb(235, 235, 235); transform-origin: 356.75px 196.4px;" id="eleapz9y7r9te" class="animable"></path><rect y="382.4" width="500" height="0.25" style="fill: rgb(235, 235, 235); transform-origin: 250px 382.525px;" id="ely4q5v01wqd" class="animable"></rect><g id="eljzpt1t4gke"><path d="M105.94,119.6h.53a4.54,4.54,0,0,1,4.54,4.54V247a4.54,4.54,0,0,1-4.54,4.54h-.53a4.55,4.55,0,0,1-4.55-4.55V124.15a4.55,4.55,0,0,1,4.55-4.55Z" style="fill: rgb(224, 224, 224); transform-origin: 106.2px 185.57px; transform: rotate(55.49deg);" class="animable"></path></g><path d="M73.59,373.11h54.08a8.45,8.45,0,0,1,8.45,8.45v.49a0,0,0,0,1,0,0h-71a0,0,0,0,1,0,0v-.49A8.45,8.45,0,0,1,73.59,373.11Z" style="fill: rgb(224, 224, 224); transform-origin: 100.62px 377.58px;" id="elhb5ooyues8u" class="animable"></path><path d="M100.27,327.05H101a6.06,6.06,0,0,1,6.06,6.06v44.47a0,0,0,0,1,0,0H94.21a0,0,0,0,1,0,0V333.11A6.06,6.06,0,0,1,100.27,327.05Z" style="fill: rgb(224, 224, 224); transform-origin: 100.635px 352.315px;" id="el6zl3pcp3d6a" class="animable"></path><g id="elj40089rjpg"><rect x="72.83" y="212.7" width="9.62" height="131.94" rx="4.55" style="fill: rgb(240, 240, 240); transform-origin: 77.64px 278.67px; transform: rotate(-23deg);" class="animable"></rect></g><g id="elle0fzgn9529"><path d="M157.5,138.37h1.24a10.6,10.6,0,0,1,10.6,10.6v10.57a0,0,0,0,1,0,0H146.9a0,0,0,0,1,0,0V149A10.6,10.6,0,0,1,157.5,138.37Z" style="fill: rgb(235, 235, 235); transform-origin: 158.12px 148.955px; transform: rotate(-45deg);" class="animable"></path></g><polygon points="181.42 149.14 173.1 140.82 149.98 163.94 158.3 172.26 173.51 212.77 221.93 164.35 181.42 149.14" style="fill: rgb(240, 240, 240); transform-origin: 185.955px 176.795px;" id="eldiio2326zd9" class="animable"></polygon><path d="M378.19,347.5c-14.27-1.64-17.57-24.28-7.28-33.95s32.69-5,33.44,9.36c.33,6.39-12.42,4.08-17.08,8S384.47,348.21,378.19,347.5Z" style="fill: rgb(240, 240, 240); transform-origin: 384.636px 327.996px;" id="elnqe35fwm46h" class="animable"></path><path d="M397.81,317.67c-7.54.88-11.49,7.35-12.58,9.44L384,325.83c-.46-1.91-1.32-7.28,2.19-10.58a.55.55,0,0,0,.06-.75.54.54,0,0,0-.78-.06c-3.2,3-3.23,7.3-2.85,10a67.17,67.17,0,0,0-8-7,.73.73,0,0,0-1,.19.72.72,0,0,0,.18,1,69.22,69.22,0,0,1,8.11,7.17A18.27,18.27,0,0,0,371,328a.55.55,0,0,0-.17.76.55.55,0,0,0,.74.17c4.67-2.77,10.22-2.06,11.58-1.82.53.55,1.08,1.13,1.63,1.74a18.63,18.63,0,0,0-10.4,9.76.55.55,0,0,0,1,.44,17.86,17.86,0,0,1,10.19-9.34,150.35,150.35,0,0,1,18,25.16l1.25-.72A151,151,0,0,0,386,328c.64-1.34,4.35-8.33,11.91-9.22a.54.54,0,0,0,.49-.57A.56.56,0,0,0,397.81,317.67Z" style="fill: rgb(224, 224, 224); transform-origin: 387.782px 334.586px;" id="elpkv0jp9wjvl" class="animable"></path><path d="M436.79,337c17.27-6.22,14.72-35.36-.93-44.37s-42.13,3.43-38.84,21.48c1.47,8,16.65,1.42,23.6,5C427.72,322.76,429.18,339.77,436.79,337Z" style="fill: rgb(240, 240, 240); transform-origin: 422.722px 313.464px;" id="eldky2szqu4x" class="animable"></path><path d="M403.61,305.7c9.64-1.13,16.46,5.76,18.43,8.05.39-.68.76-1.33,1.13-1.95,0-2.51-.5-9.45-5.84-12.52a.7.7,0,1,1,.66-1.23c4.85,2.76,6.16,8.14,6.48,11.6a86,86,0,0,1,7.85-11,.93.93,0,0,1,1.4,1.21,90.06,90.06,0,0,0-8,11.29c2.95-1,8.54-2.32,14.22-.53a.69.69,0,1,1-.43,1.32c-6.62-2.07-13.31.45-14.94,1.14-.5.84-1,1.72-1.52,2.65a23.86,23.86,0,0,1,15.82,9.08.7.7,0,0,1-1.12.84A22.84,22.84,0,0,0,422.35,317a191.8,191.8,0,0,0-15,36.59l-1.77-.54a193.94,193.94,0,0,1,15.72-38c-1.19-1.48-7.86-9.08-17.52-8a.7.7,0,0,1-.78-.58A.71.71,0,0,1,403.61,305.7Z" style="fill: rgb(224, 224, 224); transform-origin: 421.709px 325.765px;" id="elw8duls3ku4" class="animable"></path><path d="M432,350.63c10.38.25,15-15.64,8.6-23.59s-22.92-6.83-24.89,3.37c-.87,4.54,8.49,4.16,11.43,7.46S427.45,350.52,432,350.63Z" style="fill: rgb(224, 224, 224); transform-origin: 429.593px 336.224px;" id="el7plnpv1kn2i" class="animable"></path><path d="M421,328.31c5.32,1.38,7.5,6.41,8.07,8l1-.8c.51-1.32,1.67-5.08-.52-7.8a.41.41,0,0,1,0-.55.4.4,0,0,1,.57,0c2,2.45,1.58,5.55,1,7.44a50.28,50.28,0,0,1,6.4-4.2.53.53,0,0,1,.72.24.53.53,0,0,1-.23.69,49.41,49.41,0,0,0-6.52,4.32,13.31,13.31,0,0,1,7.61,2.63.4.4,0,0,1,0,.57.39.39,0,0,1-.54,0,13.12,13.12,0,0,0-8.12-2.46l-1.34,1.08a13.5,13.5,0,0,1,6.48,8,.39.39,0,0,1-.76.21,12.89,12.89,0,0,0-6.37-7.7,108.55,108.55,0,0,0-15.4,16.22l-.82-.64a109,109,0,0,1,16.08-16.84c-.32-1-2.28-6.4-7.61-7.79a.41.41,0,0,1-.29-.46A.39.39,0,0,1,421,328.31Z" style="fill: rgb(240, 240, 240); transform-origin: 425.725px 340.62px;" id="elpo11yiy8ki" class="animable"></path><path d="M368.65,351.61h70.41a0,0,0,0,1,0,0V371.7a11,11,0,0,1-11,11H379.61a11,11,0,0,1-11-11V351.61A0,0,0,0,1,368.65,351.61Z" style="fill: rgb(224, 224, 224); transform-origin: 403.835px 367.155px;" id="el9x3k4xfuwyi" class="animable"></path></g><g id="freepik--Shadow--inject-6" class="animable" style="transform-origin: 245.18px 412.39px;"><ellipse id="freepik--path--inject-6" cx="245.18" cy="412.39" rx="193.89" ry="11.32" style="fill: rgb(245, 245, 245); transform-origin: 245.18px 412.39px;" class="animable"></ellipse></g><g id="freepik--Template--inject-6" class="animable" style="transform-origin: 337.365px 214.005px;"><rect x="256.2" y="119.08" width="162.32" height="189.85" style="fill: rgb(64, 123, 255); transform-origin: 337.36px 214.005px;" id="elok8b6gcnpq" class="animable"></rect><g id="elt63cdq5kqx"><rect x="256.2" y="119.08" width="162.32" height="189.85" style="fill: rgb(255, 255, 255); opacity: 0.3; transform-origin: 337.36px 214.005px;" class="animable"></rect></g><rect x="259.53" y="137.03" width="19.28" height="109.5" style="fill: rgb(38, 50, 56); transform-origin: 269.17px 191.78px;" id="ell6u6gem0bnr" class="animable"></rect><g id="el71gudvjhq48"><rect x="259.53" y="137.03" width="19.28" height="109.5" style="fill: rgb(255, 255, 255); opacity: 0.4; transform-origin: 269.17px 191.78px;" class="animable"></rect></g><rect x="256.2" y="119.08" width="162.32" height="11.44" style="fill: rgb(38, 50, 56); transform-origin: 337.36px 124.8px;" id="el4gmncbkbecp" class="animable"></rect><g id="elvt44epj1ut"><polyline points="418.53 130.53 418.53 119.08 256.2 119.08 256.2 130.53" style="fill: rgb(255, 255, 255); opacity: 0.4; transform-origin: 337.365px 124.805px;" class="animable"></polyline></g><rect x="261.78" y="147.78" width="6.25" height="6.25" rx="1.75" style="fill: rgb(64, 123, 255); transform-origin: 264.905px 150.905px;" id="elofs4nwp08xh" class="animable"></rect><rect x="270.17" y="147.78" width="6.25" height="6.25" rx="1.75" style="fill: rgb(64, 123, 255); transform-origin: 273.295px 150.905px;" id="el1prh4tohkey" class="animable"></rect><rect x="261.78" y="156.65" width="6.25" height="6.25" rx="1.75" style="fill: rgb(64, 123, 255); transform-origin: 264.905px 159.775px;" id="elc7sgg3p1ybk" class="animable"></rect><rect x="270.17" y="156.65" width="6.25" height="6.25" rx="1.75" style="fill: rgb(64, 123, 255); transform-origin: 273.295px 159.775px;" id="elrq7u1q13ht" class="animable"></rect><rect x="261.78" y="165.53" width="6.25" height="6.25" rx="1.75" style="fill: rgb(64, 123, 255); transform-origin: 264.905px 168.655px;" id="elfxvqu40dueb" class="animable"></rect><rect x="270.17" y="165.53" width="6.25" height="6.25" rx="1.75" style="fill: rgb(64, 123, 255); transform-origin: 273.295px 168.655px;" id="ele5xzrh0og6v" class="animable"></rect><rect x="261.78" y="174.4" width="6.25" height="6.25" rx="1.75" style="fill: rgb(64, 123, 255); transform-origin: 264.905px 177.525px;" id="elu3pbmsjwyol" class="animable"></rect><rect x="270.17" y="174.4" width="6.25" height="6.25" rx="1.75" style="fill: rgb(64, 123, 255); transform-origin: 273.295px 177.525px;" id="elay9yxb4zjpl" class="animable"></rect><rect x="261.78" y="183.28" width="6.25" height="6.25" rx="1.75" style="fill: rgb(64, 123, 255); transform-origin: 264.905px 186.405px;" id="elrobl0y09vvc" class="animable"></rect><rect x="270.17" y="183.28" width="6.25" height="6.25" rx="1.75" style="fill: rgb(64, 123, 255); transform-origin: 273.295px 186.405px;" id="el5h11xv18goa" class="animable"></rect><rect x="261.78" y="192.15" width="6.25" height="6.25" rx="1.75" style="fill: rgb(64, 123, 255); transform-origin: 264.905px 195.275px;" id="elir9f4o9uki" class="animable"></rect><rect x="270.17" y="192.15" width="6.25" height="6.25" rx="1.75" style="fill: rgb(64, 123, 255); transform-origin: 273.295px 195.275px;" id="el98a934i1t7e" class="animable"></rect><rect x="261.78" y="201.03" width="6.25" height="6.25" rx="1.75" style="fill: rgb(64, 123, 255); transform-origin: 264.905px 204.155px;" id="elxyliqwsbut" class="animable"></rect><rect x="270.17" y="201.03" width="6.25" height="6.25" rx="1.75" style="fill: rgb(64, 123, 255); transform-origin: 273.295px 204.155px;" id="el3dizyzmg1v" class="animable"></rect><rect x="261.78" y="209.9" width="6.25" height="6.25" rx="1.75" style="fill: rgb(64, 123, 255); transform-origin: 264.905px 213.025px;" id="el1e8s0nkdxbm" class="animable"></rect><rect x="270.17" y="209.9" width="6.25" height="6.25" rx="1.75" style="fill: rgb(64, 123, 255); transform-origin: 273.295px 213.025px;" id="elae39orkb0ht" class="animable"></rect><rect x="261.78" y="224.03" width="9.25" height="9.25" rx="2.02" style="fill: rgb(64, 123, 255); transform-origin: 266.405px 228.655px;" id="ellzkqn39pvhj" class="animable"></rect><path d="M276.4,238.65H265.65V235.6a.75.75,0,0,1,.75-.75h0a.74.74,0,0,1,.75.75v1.55h7.75V229.4h-1.55a.74.74,0,0,1-.75-.75h0a.75.75,0,0,1,.75-.75h3Z" style="fill: rgb(64, 123, 255); transform-origin: 271.025px 233.275px;" id="el6406dwxakf3" class="animable"></path><rect x="259.53" y="137.03" width="19.28" height="6.5" style="fill: rgb(64, 123, 255); transform-origin: 269.17px 140.28px;" id="elmv0x21ivh4m" class="animable"></rect><path d="M412.29,302.53h0a2.75,2.75,0,0,1-2.75-2.74v-163a2.74,2.74,0,0,1,2.75-2.74h0a2.74,2.74,0,0,1,2.74,2.74v163A2.74,2.74,0,0,1,412.29,302.53Z" style="fill: rgb(38, 50, 56); transform-origin: 412.285px 218.29px;" id="elj3paug6bxks" class="animable"></path><g id="elif1pq5nz73n"><path d="M412.29,302.53h0a2.75,2.75,0,0,1-2.75-2.74v-163a2.74,2.74,0,0,1,2.75-2.74h0a2.74,2.74,0,0,1,2.74,2.74v163A2.74,2.74,0,0,1,412.29,302.53Z" style="fill: rgb(255, 255, 255); opacity: 0.4; transform-origin: 412.285px 218.29px;" class="animable"></path></g><g id="elud3cyxfcu2m"><rect x="290.53" y="143.53" width="108.5" height="48.63" style="fill: rgb(255, 255, 255); opacity: 0.4; transform-origin: 344.78px 167.845px;" class="animable"></rect></g><polygon points="393.37 189.07 346 167.84 392.54 146.98 392.13 146.07 344.78 167.29 297.43 146.07 297.02 146.98 343.55 167.84 297.02 188.69 297.43 189.61 344.78 168.39 392.96 189.98 393.37 189.07" style="fill: rgb(64, 123, 255); transform-origin: 345.195px 168.025px;" id="elidy35l37od" class="animable"></polygon><g id="el4giohrcuj1q"><rect x="297.22" y="205.53" width="44.35" height="36" style="fill: rgb(255, 255, 255); opacity: 0.4; transform-origin: 319.395px 223.53px;" class="animable"></rect></g><polygon points="339.5 239.19 320.19 223.53 339.15 208.14 338.52 207.36 319.4 222.88 300.27 207.36 299.64 208.14 318.6 223.53 299.64 238.92 300.27 239.69 319.4 224.17 338.87 239.97 339.5 239.19" style="fill: rgb(64, 123, 255); transform-origin: 319.57px 223.665px;" id="ely0c4bz13ya" class="animable"></polygon><g id="el1pd19s13etw"><rect x="347.98" y="205.53" width="44.35" height="36" style="fill: rgb(255, 255, 255); opacity: 0.4; transform-origin: 370.155px 223.53px;" class="animable"></rect></g><polygon points="390.25 239.19 370.95 223.53 389.91 208.14 389.28 207.36 370.15 222.88 351.03 207.36 350.4 208.14 369.36 223.53 350.4 238.92 351.03 239.69 370.15 224.17 389.62 239.97 390.25 239.19" style="fill: rgb(64, 123, 255); transform-origin: 370.325px 223.665px;" id="elfa7yl5cahz" class="animable"></polygon><path d="M340.4,250.88h-42a1.18,1.18,0,0,1-1.18-1.18h0a1.17,1.17,0,0,1,1.18-1.17h42a1.17,1.17,0,0,1,1.17,1.17h0A1.17,1.17,0,0,1,340.4,250.88Z" style="fill: rgb(38, 50, 56); transform-origin: 319.395px 249.705px;" id="eluklyjdbax6e" class="animable"></path><g id="eliwkyv7pn9r"><path d="M340.4,250.88h-42a1.18,1.18,0,0,1-1.18-1.18h0a1.17,1.17,0,0,1,1.18-1.17h42a1.17,1.17,0,0,1,1.17,1.17h0A1.17,1.17,0,0,1,340.4,250.88Z" style="fill: rgb(255, 255, 255); opacity: 0.4; transform-origin: 319.395px 249.705px;" class="animable"></path></g><path d="M332.93,255.6H298.4a1.18,1.18,0,0,1-1.18-1.18h0a1.18,1.18,0,0,1,1.18-1.18h34.53a1.18,1.18,0,0,1,1.18,1.18h0A1.18,1.18,0,0,1,332.93,255.6Z" style="fill: rgb(38, 50, 56); transform-origin: 315.665px 254.42px;" id="elptxihksdqmk" class="animable"></path><g id="el24ahqsq40bu"><path d="M332.93,255.6H298.4a1.18,1.18,0,0,1-1.18-1.18h0a1.18,1.18,0,0,1,1.18-1.18h34.53a1.18,1.18,0,0,1,1.18,1.18h0A1.18,1.18,0,0,1,332.93,255.6Z" style="fill: rgb(255, 255, 255); opacity: 0.4; transform-origin: 315.665px 254.42px;" class="animable"></path></g><path d="M335.36,260.31h-37a1.18,1.18,0,0,1-1.18-1.18h0A1.18,1.18,0,0,1,298.4,258h37a1.18,1.18,0,0,1,1.18,1.18h0A1.18,1.18,0,0,1,335.36,260.31Z" style="fill: rgb(38, 50, 56); transform-origin: 316.88px 259.155px;" id="elbh03rrrd88" class="animable"></path><g id="el7078qin9zmf"><path d="M335.36,260.31h-37a1.18,1.18,0,0,1-1.18-1.18h0A1.18,1.18,0,0,1,298.4,258h37a1.18,1.18,0,0,1,1.18,1.18h0A1.18,1.18,0,0,1,335.36,260.31Z" style="fill: rgb(255, 255, 255); opacity: 0.4; transform-origin: 316.88px 259.155px;" class="animable"></path></g><path d="M391.15,250.88h-42A1.18,1.18,0,0,1,348,249.7h0a1.17,1.17,0,0,1,1.18-1.17h42a1.17,1.17,0,0,1,1.18,1.17h0A1.18,1.18,0,0,1,391.15,250.88Z" style="fill: rgb(38, 50, 56); transform-origin: 370.18px 249.705px;" id="elxq7p5vcku2" class="animable"></path><g id="elm0aerhkkg5q"><path d="M391.15,250.88h-42A1.18,1.18,0,0,1,348,249.7h0a1.17,1.17,0,0,1,1.18-1.17h42a1.17,1.17,0,0,1,1.18,1.17h0A1.18,1.18,0,0,1,391.15,250.88Z" style="fill: rgb(255, 255, 255); opacity: 0.4; transform-origin: 370.18px 249.705px;" class="animable"></path></g><path d="M386.69,255.6H349.16a1.18,1.18,0,0,1-1.18-1.18h0a1.18,1.18,0,0,1,1.18-1.18h37.53a1.18,1.18,0,0,1,1.18,1.18h0A1.18,1.18,0,0,1,386.69,255.6Z" style="fill: rgb(38, 50, 56); transform-origin: 367.925px 254.42px;" id="elmxmoly64git" class="animable"></path><g id="elf3z87qy0mz"><path d="M386.69,255.6H349.16a1.18,1.18,0,0,1-1.18-1.18h0a1.18,1.18,0,0,1,1.18-1.18h37.53a1.18,1.18,0,0,1,1.18,1.18h0A1.18,1.18,0,0,1,386.69,255.6Z" style="fill: rgb(255, 255, 255); opacity: 0.4; transform-origin: 367.925px 254.42px;" class="animable"></path></g><path d="M384.12,260.31h-35a1.18,1.18,0,0,1-1.18-1.18h0a1.18,1.18,0,0,1,1.18-1.18h35a1.18,1.18,0,0,1,1.18,1.18h0A1.18,1.18,0,0,1,384.12,260.31Z" style="fill: rgb(38, 50, 56); transform-origin: 366.62px 259.13px;" id="el6zxqnpvczg7" class="animable"></path><g id="el4ym8satqzd3"><path d="M384.12,260.31h-35a1.18,1.18,0,0,1-1.18-1.18h0a1.18,1.18,0,0,1,1.18-1.18h35a1.18,1.18,0,0,1,1.18,1.18h0A1.18,1.18,0,0,1,384.12,260.31Z" style="fill: rgb(255, 255, 255); opacity: 0.4; transform-origin: 366.62px 259.13px;" class="animable"></path></g><path d="M340.4,272.12h-42a1.18,1.18,0,0,1-1.18-1.18h0a1.18,1.18,0,0,1,1.18-1.18h42a1.17,1.17,0,0,1,1.17,1.18h0A1.17,1.17,0,0,1,340.4,272.12Z" style="fill: rgb(38, 50, 56); transform-origin: 319.395px 270.94px;" id="elunrwkqo6ljn" class="animable"></path><g id="elmfr9loh3ax"><path d="M340.4,272.12h-42a1.18,1.18,0,0,1-1.18-1.18h0a1.18,1.18,0,0,1,1.18-1.18h42a1.17,1.17,0,0,1,1.17,1.18h0A1.17,1.17,0,0,1,340.4,272.12Z" style="fill: rgb(255, 255, 255); opacity: 0.4; transform-origin: 319.395px 270.94px;" class="animable"></path></g><path d="M335.93,276.83H298.4a1.17,1.17,0,0,1-1.18-1.17h0a1.18,1.18,0,0,1,1.18-1.18h37.53a1.18,1.18,0,0,1,1.18,1.18h0A1.17,1.17,0,0,1,335.93,276.83Z" style="fill: rgb(38, 50, 56); transform-origin: 317.165px 275.655px;" id="ellnprb1thfy" class="animable"></path><g id="elaewr2tlqccq"><path d="M335.93,276.83H298.4a1.17,1.17,0,0,1-1.18-1.17h0a1.18,1.18,0,0,1,1.18-1.18h37.53a1.18,1.18,0,0,1,1.18,1.18h0A1.17,1.17,0,0,1,335.93,276.83Z" style="fill: rgb(255, 255, 255); opacity: 0.4; transform-origin: 317.165px 275.655px;" class="animable"></path></g><path d="M330.36,281.55h-32a1.18,1.18,0,0,1-1.18-1.18h0a1.18,1.18,0,0,1,1.18-1.18h32a1.18,1.18,0,0,1,1.18,1.18h0A1.18,1.18,0,0,1,330.36,281.55Z" style="fill: rgb(38, 50, 56); transform-origin: 314.36px 280.37px;" id="eldbdq1bgqvbl" class="animable"></path><g id="elz7strlxoh2c"><path d="M330.36,281.55h-32a1.18,1.18,0,0,1-1.18-1.18h0a1.18,1.18,0,0,1,1.18-1.18h32a1.18,1.18,0,0,1,1.18,1.18h0A1.18,1.18,0,0,1,330.36,281.55Z" style="fill: rgb(255, 255, 255); opacity: 0.4; transform-origin: 314.36px 280.37px;" class="animable"></path></g><path d="M388.15,272.12h-39a1.18,1.18,0,0,1-1.18-1.18h0a1.18,1.18,0,0,1,1.18-1.18h39a1.18,1.18,0,0,1,1.18,1.18h0A1.18,1.18,0,0,1,388.15,272.12Z" style="fill: rgb(38, 50, 56); transform-origin: 368.65px 270.94px;" id="ell95xwjpb9lb" class="animable"></path><g id="elh8xzvce3wx9"><path d="M388.15,272.12h-39a1.18,1.18,0,0,1-1.18-1.18h0a1.18,1.18,0,0,1,1.18-1.18h39a1.18,1.18,0,0,1,1.18,1.18h0A1.18,1.18,0,0,1,388.15,272.12Z" style="fill: rgb(255, 255, 255); opacity: 0.4; transform-origin: 368.65px 270.94px;" class="animable"></path></g><path d="M383.69,276.83H349.16a1.17,1.17,0,0,1-1.18-1.17h0a1.18,1.18,0,0,1,1.18-1.18h34.53a1.18,1.18,0,0,1,1.18,1.18h0A1.17,1.17,0,0,1,383.69,276.83Z" style="fill: rgb(38, 50, 56); transform-origin: 366.425px 275.655px;" id="el2qwhrmap5ql" class="animable"></path><g id="el9uesotmexh7"><path d="M383.69,276.83H349.16a1.17,1.17,0,0,1-1.18-1.17h0a1.18,1.18,0,0,1,1.18-1.18h34.53a1.18,1.18,0,0,1,1.18,1.18h0A1.17,1.17,0,0,1,383.69,276.83Z" style="fill: rgb(255, 255, 255); opacity: 0.4; transform-origin: 366.425px 275.655px;" class="animable"></path></g><path d="M384.12,281.55h-35a1.18,1.18,0,0,1-1.18-1.18h0a1.18,1.18,0,0,1,1.18-1.18h35a1.18,1.18,0,0,1,1.18,1.18h0A1.18,1.18,0,0,1,384.12,281.55Z" style="fill: rgb(38, 50, 56); transform-origin: 366.62px 280.37px;" id="el0gnh0b0niap" class="animable"></path><g id="el7wj406cei88"><path d="M384.12,281.55h-35a1.18,1.18,0,0,1-1.18-1.18h0a1.18,1.18,0,0,1,1.18-1.18h35a1.18,1.18,0,0,1,1.18,1.18h0A1.18,1.18,0,0,1,384.12,281.55Z" style="fill: rgb(255, 255, 255); opacity: 0.4; transform-origin: 366.62px 280.37px;" class="animable"></path></g><g id="elowzh99g3gci"><path d="M412.29,277.25h0a1.92,1.92,0,0,1-1.92-1.92V264.19a1.92,1.92,0,0,1,1.92-1.92h0a1.91,1.91,0,0,1,1.91,1.92v11.14A1.91,1.91,0,0,1,412.29,277.25Z" style="fill: rgb(255, 255, 255); opacity: 0.4; transform-origin: 412.285px 269.76px;" class="animable"></path></g></g><g id="freepik--Device--inject-6" class="animable animator-active" style="transform-origin: 207.545px 322.755px;"><path d="M324.7,233.28H90.4A9.76,9.76,0,0,0,80.63,243V391.5a9.76,9.76,0,0,0,9.77,9.76h31.09V396.5A2.54,2.54,0,0,1,124,394h167a2.53,2.53,0,0,1,2.53,2.53v4.76h31.1a9.76,9.76,0,0,0,9.76-9.76V243A9.76,9.76,0,0,0,324.7,233.28Z" style="fill: rgb(38, 50, 56); transform-origin: 207.51px 317.285px;" id="el8tkhqri182q" class="animable"></path><path d="M209.6,239.67a2.06,2.06,0,1,1-2-2.06A2.05,2.05,0,0,1,209.6,239.67Z" style="fill: rgb(64, 123, 255); transform-origin: 207.54px 239.669px;" id="el0naud9t2lnh" class="animable"></path><rect x="61.46" y="397.6" width="292.17" height="7.31" style="fill: rgb(38, 50, 56); transform-origin: 207.545px 401.255px;" id="elhojpwz0dsf" class="animable"></rect><g id="elv1kgwt54rwp"><rect x="61.46" y="397.6" width="292.17" height="7.31" style="fill: rgb(255, 255, 255); opacity: 0.5; transform-origin: 207.545px 401.255px;" class="animable"></rect></g><path d="M61.46,404.92,66,408.54a16.8,16.8,0,0,0,10.51,3.69H338.6a16.8,16.8,0,0,0,10.51-3.69l4.52-3.62Z" style="fill: rgb(38, 50, 56); transform-origin: 207.545px 408.575px;" id="elxgfs7zbln2" class="animable"></path><g id="el8rrhz14qicj"><path d="M61.46,404.92,66,408.54a16.8,16.8,0,0,0,10.51,3.69H338.6a16.8,16.8,0,0,0,10.51-3.69l4.52-3.62Z" style="fill: rgb(255, 255, 255); opacity: 0.3; transform-origin: 207.545px 408.575px;" class="animable"></path></g><g id="el1g5j05zw8ie"><path d="M179.47,397.84a3.42,3.42,0,0,0,3.42,3.42H232.2a3.42,3.42,0,0,0,3.42-3.42c0-.08,0-.16,0-.24H179.49C179.49,397.68,179.47,397.76,179.47,397.84Z" style="fill: rgb(255, 255, 255); opacity: 0.4; transform-origin: 207.545px 399.43px;" class="animable"></path></g><rect x="92.05" y="246.52" width="231" height="131.48" style="fill: rgb(64, 123, 255); transform-origin: 207.55px 312.26px;" id="el98mwikc6sov" class="animable"></rect><g id="el6kdpsxyg1oo"><rect x="92.05" y="246.52" width="231" height="131.48" style="fill: rgb(255, 255, 255); opacity: 0.6; transform-origin: 207.55px 312.26px;" class="animable"></rect></g><rect x="92.05" y="246.52" width="231" height="15.83" style="fill: rgb(64, 123, 255); transform-origin: 207.55px 254.435px;" id="elm2dkjxwko8" class="animable"></rect><g id="elwhrucvisun"><path d="M194,258.38H104.49a3.88,3.88,0,0,1-3.88-3.88h0a3.88,3.88,0,0,1,3.88-3.88H194a3.88,3.88,0,0,1,3.88,3.88h0A3.88,3.88,0,0,1,194,258.38Z" style="fill: rgb(255, 255, 255); opacity: 0.8; transform-origin: 149.245px 254.5px;" class="animable"></path></g><g id="ell6x7dcd3ggp"><path d="M314.26,254.5a3.88,3.88,0,1,1-3.88-3.88A3.87,3.87,0,0,1,314.26,254.5Z" style="fill: rgb(255, 255, 255); opacity: 0.8; transform-origin: 310.38px 254.5px;" class="animable"></path></g><g id="elt123jhf6z7"><circle cx="296.92" cy="254.5" r="3.88" style="fill: rgb(255, 255, 255); opacity: 0.6; transform-origin: 296.92px 254.5px;" class="animable"></circle></g><g id="elj2uqro16ta"><circle cx="283.45" cy="254.5" r="3.88" style="fill: rgb(255, 255, 255); opacity: 0.4; transform-origin: 283.45px 254.5px;" class="animable"></circle></g><rect x="100.61" y="277.48" width="213.65" height="74.95" style="fill: rgb(64, 123, 255); transform-origin: 207.435px 314.955px;" id="ell46aqsjzmp9" class="animable"></rect><path d="M121.07,352.43l41-41a5.47,5.47,0,0,1,7.74,0l41,41Z" style="fill: rgb(64, 123, 255); transform-origin: 165.94px 331.128px;" id="elz2skudcu9mo" class="animable"></path><g id="el1ygo2p2yrrx"><path d="M121.07,352.43l41-41a5.47,5.47,0,0,1,7.74,0l41,41Z" style="opacity: 0.3; transform-origin: 165.94px 331.128px;" class="animable"></path></g><path d="M169.81,311.43a5.45,5.45,0,0,0-5.76-1.25c0,3.35,7.64,6.13,7.64,9.49s-7.65,6.15-7.65,9.51,14,6.14,14,9.5-14,6.14-14,9.5c0,1.2,1.51,2.74,3.48,4.25h43.29Z" style="fill: rgb(64, 123, 255); transform-origin: 187.425px 331.133px;" id="elpbht7hvfh5" class="animable"></path><g id="elu1jx7zltugg"><path d="M169.81,311.43a5.45,5.45,0,0,0-5.76-1.25c0,3.35,7.64,6.13,7.64,9.49s-7.65,6.15-7.65,9.51,14,6.14,14,9.5-14,6.14-14,9.5c0,1.2,1.51,2.74,3.48,4.25h43.29Z" style="fill: rgb(255, 255, 255); opacity: 0.4; transform-origin: 187.425px 331.133px;" class="animable"></path></g><path d="M193.88,352.43,247,299.27a7.1,7.1,0,0,1,10,0l53.16,53.16Z" style="fill: rgb(64, 123, 255); transform-origin: 252.02px 324.82px;" id="elqzry8vzt1un" class="animable"></path><g id="elxe06idmrlx"><path d="M193.88,352.43,247,299.27a7.1,7.1,0,0,1,10,0l53.16,53.16Z" style="opacity: 0.3; transform-origin: 252.02px 324.82px;" class="animable"></path></g><path d="M257.08,299.27a7.07,7.07,0,0,0-7.48-1.62c0,4.35,9.92,8,9.92,12.3s-9.92,8-9.92,12.33,18.2,8,18.2,12.32-18.2,8-18.2,12.32c0,1.56,2,3.56,4.51,5.51h56.13Z" style="fill: rgb(64, 123, 255); transform-origin: 279.92px 324.815px;" id="elvyw7u1s6ny" class="animable"></path><g id="el38hchfyyz07"><path d="M257.08,299.27a7.07,7.07,0,0,0-7.48-1.62c0,4.35,9.92,8,9.92,12.3s-9.92,8-9.92,12.33,18.2,8,18.2,12.32-18.2,8-18.2,12.32c0,1.56,2,3.56,4.51,5.51h56.13Z" style="fill: rgb(255, 255, 255); opacity: 0.4; transform-origin: 279.92px 324.815px;" class="animable"></path></g><g id="elif3nytvccfk"><path d="M208.3,272.08H185.48a2.51,2.51,0,0,1-2.52-2.51h0a2.51,2.51,0,0,1,2.52-2.51H208.3a2.51,2.51,0,0,1,2.51,2.51h0A2.51,2.51,0,0,1,208.3,272.08Z" style="fill: rgb(255, 255, 255); opacity: 0.5; transform-origin: 196.885px 269.57px;" class="animable"></path></g><path d="M243,272.08H220.17a2.51,2.51,0,0,1-2.51-2.51h0a2.51,2.51,0,0,1,2.51-2.51H243a2.51,2.51,0,0,1,2.51,2.51h0A2.51,2.51,0,0,1,243,272.08Z" style="fill: rgb(64, 123, 255); transform-origin: 231.585px 269.57px;" id="el4r9zi2bl7a3" class="animable"></path><g id="elnjoq3aarihp"><path d="M277.69,272.08H254.87a2.51,2.51,0,0,1-2.51-2.51h0a2.51,2.51,0,0,1,2.51-2.51h22.82a2.51,2.51,0,0,1,2.51,2.51h0A2.51,2.51,0,0,1,277.69,272.08Z" style="fill: rgb(255, 255, 255); opacity: 0.5; transform-origin: 266.28px 269.57px;" class="animable"></path></g><path d="M243.72,363.47h-39a1.88,1.88,0,0,1-1.88-1.88h0a1.89,1.89,0,0,1,1.88-1.89h39a1.89,1.89,0,0,1,1.88,1.89h0A1.88,1.88,0,0,1,243.72,363.47Z" style="fill: rgb(38, 50, 56); transform-origin: 224.22px 361.585px;" id="elqow1t1wv2ef" class="animable"></path><path d="M273,363.47H250.81a1.88,1.88,0,0,1-1.88-1.88h0a1.89,1.89,0,0,1,1.88-1.89H273a1.89,1.89,0,0,1,1.88,1.89h0A1.88,1.88,0,0,1,273,363.47Z" style="fill: rgb(38, 50, 56); transform-origin: 261.905px 361.585px;" id="el8rej9hh97vd" class="animable"></path><path d="M233.79,371.86h-29a1.89,1.89,0,0,1-1.88-1.89h0a1.88,1.88,0,0,1,1.88-1.88h29a1.88,1.88,0,0,1,1.88,1.88h0A1.89,1.89,0,0,1,233.79,371.86Z" style="fill: rgb(38, 50, 56); transform-origin: 219.29px 369.975px;" id="el6btac5ukzlh" class="animable"></path><path d="M261,371.86H240.63a1.89,1.89,0,0,1-1.88-1.89h0a1.88,1.88,0,0,1,1.88-1.88H261a1.88,1.88,0,0,1,1.88,1.88h0A1.89,1.89,0,0,1,261,371.86Z" style="fill: rgb(38, 50, 56); transform-origin: 250.815px 369.975px;" id="elb5dyzq05eud" class="animable"></path><g id="elqdfslat3hwd"><path d="M243.72,363.47h-39a1.88,1.88,0,0,1-1.88-1.88h0a1.89,1.89,0,0,1,1.88-1.89h39a1.89,1.89,0,0,1,1.88,1.89h0A1.88,1.88,0,0,1,243.72,363.47Z" style="fill: rgb(255, 255, 255); opacity: 0.4; transform-origin: 224.22px 361.585px;" class="animable"></path></g><g id="elkqus6h7ug7"><path d="M273,363.47H250.81a1.88,1.88,0,0,1-1.88-1.88h0a1.89,1.89,0,0,1,1.88-1.89H273a1.89,1.89,0,0,1,1.88,1.89h0A1.88,1.88,0,0,1,273,363.47Z" style="fill: rgb(255, 255, 255); opacity: 0.4; transform-origin: 261.905px 361.585px;" class="animable"></path></g><g id="eld5kein26k6l"><path d="M233.79,371.86h-29a1.89,1.89,0,0,1-1.88-1.89h0a1.88,1.88,0,0,1,1.88-1.88h29a1.88,1.88,0,0,1,1.88,1.88h0A1.89,1.89,0,0,1,233.79,371.86Z" style="fill: rgb(255, 255, 255); opacity: 0.4; transform-origin: 219.29px 369.975px;" class="animable"></path></g><g id="eln95v6sk0ans"><path d="M261,371.86H240.63a1.89,1.89,0,0,1-1.88-1.89h0a1.88,1.88,0,0,1,1.88-1.88H261a1.88,1.88,0,0,1,1.88,1.88h0A1.89,1.89,0,0,1,261,371.86Z" style="fill: rgb(255, 255, 255); opacity: 0.4; transform-origin: 250.815px 369.975px;" class="animable"></path></g><g id="el7fswm4mz2et"><path d="M312.39,272.08H289.56a2.51,2.51,0,0,1-2.51-2.51h0a2.51,2.51,0,0,1,2.51-2.51h22.83a2.51,2.51,0,0,1,2.51,2.51h0A2.51,2.51,0,0,1,312.39,272.08Z" style="fill: rgb(255, 255, 255); opacity: 0.5; transform-origin: 300.975px 269.57px;" class="animable"></path></g><rect x="120.02" y="317.27" width="73.04" height="60.72" style="fill: rgb(64, 123, 255); transform-origin: 156.54px 347.63px;" id="el5579nmpu08e" class="animable"></rect><g id="elz5ngmedusos"><rect x="120.02" y="317.27" width="73.04" height="60.72" style="fill: rgb(255, 255, 255); opacity: 0.8; transform-origin: 156.54px 347.63px;" class="animable"></rect></g><rect x="133.4" y="324.12" width="46.29" height="30.43" style="fill: rgb(64, 123, 255); transform-origin: 156.545px 339.335px;" id="el3cdiihe4pme" class="animable"></rect><g id="el2zs3xuu47de"><rect x="133.4" y="324.12" width="46.29" height="30.43" style="fill: rgb(255, 255, 255); opacity: 0.4; transform-origin: 156.545px 339.335px;" class="animable"></rect></g><polygon points="149.23 340.72 135.39 354.56 163.07 354.56 149.23 340.72" style="fill: rgb(64, 123, 255); transform-origin: 149.23px 347.64px;" id="elw8ynskavswl" class="animable"></polygon><g id="elhbcyw48oij"><polygon points="149.23 340.72 135.39 354.56 163.07 354.56 149.23 340.72" style="opacity: 0.2; transform-origin: 149.23px 347.64px;" class="animable"></polygon></g><polygon points="179.22 354.56 165.48 331.12 151.75 354.56 179.22 354.56" style="fill: rgb(64, 123, 255); transform-origin: 165.485px 342.84px;" id="el87ix3tpkbsl" class="animable"></polygon><g id="elzs0g9vxvh7"><path d="M155.66,333.86a2.78,2.78,0,1,1-2.78-2.78A2.77,2.77,0,0,1,155.66,333.86Z" style="fill: rgb(255, 255, 255); opacity: 0.8; transform-origin: 152.88px 333.86px;" class="animable"></path></g><path d="M296.52,289.66h-1a2.51,2.51,0,0,0-2.51-2.51h-1.6a2.51,2.51,0,0,0-2.51-2.52H273.46a2.51,2.51,0,0,0-2.51,2.52h-1.6a2.51,2.51,0,0,0-2.51,2.51h-5.18a2.51,2.51,0,0,0,0,5h34.86a2.51,2.51,0,0,0,0-5Z" style="fill: rgb(64, 123, 255); transform-origin: 279.09px 289.645px;" id="elemi0mxd74l" class="animable"></path><g id="eln7smjn9wg3"><path d="M296.52,289.66h-1a2.51,2.51,0,0,0-2.51-2.51h-1.6a2.51,2.51,0,0,0-2.51-2.52H273.46a2.51,2.51,0,0,0-2.51,2.52h-1.6a2.51,2.51,0,0,0-2.51,2.51h-5.18a2.51,2.51,0,0,0,0,5h34.86a2.51,2.51,0,0,0,0-5Z" style="fill: rgb(255, 255, 255); opacity: 0.8; transform-origin: 279.09px 289.645px;" class="animable"></path></g><path d="M166.19,308.28h-.87a2.12,2.12,0,0,0-2.12-2.12h-1.35a2.12,2.12,0,0,0-2.12-2.12H155.2a2.12,2.12,0,0,0-2.12,2.12h-1.35a2.11,2.11,0,0,0-2.11,2.12h-4.38a2.12,2.12,0,0,0,0,4.24h20.95a2.12,2.12,0,0,0,0-4.24Z" style="fill: rgb(64, 123, 255); transform-origin: 155.715px 308.28px;" id="elpidgb1va9u" class="animable"></path><g id="elxft1u4tr578"><path d="M166.19,308.28h-.87a2.12,2.12,0,0,0-2.12-2.12h-1.35a2.12,2.12,0,0,0-2.12-2.12H155.2a2.12,2.12,0,0,0-2.12,2.12h-1.35a2.11,2.11,0,0,0-2.11,2.12h-4.38a2.12,2.12,0,0,0,0,4.24h20.95a2.12,2.12,0,0,0,0-4.24Z" style="fill: rgb(255, 255, 255); opacity: 0.8; transform-origin: 155.715px 308.28px;" class="animable"></path></g><path d="M238.59,315h-1a2.51,2.51,0,0,0-2.51-2.51h-1.6a2.55,2.55,0,0,0-.34-1.26,2.5,2.5,0,0,0-2.17-3.76h-5.36a2.51,2.51,0,0,0-2.51,2.51H221a2.51,2.51,0,0,0-2.51,2.51h-1.59a2.51,2.51,0,0,0-2.52,2.51h-5.18a2.51,2.51,0,0,0,0,5h29.38a2.51,2.51,0,0,0,0-5Z" style="fill: rgb(64, 123, 255); transform-origin: 223.89px 313.735px;" id="elqrtvfr8tas" class="animable"></path><g id="eldb6cfoq8li6"><path d="M238.59,315h-1a2.51,2.51,0,0,0-2.51-2.51h-1.6a2.55,2.55,0,0,0-.34-1.26,2.5,2.5,0,0,0-2.17-3.76h-5.36a2.51,2.51,0,0,0-2.51,2.51H221a2.51,2.51,0,0,0-2.51,2.51h-1.59a2.51,2.51,0,0,0-2.52,2.51h-5.18a2.51,2.51,0,0,0,0,5h29.38a2.51,2.51,0,0,0,0-5Z" style="fill: rgb(255, 255, 255); opacity: 0.8; transform-origin: 223.89px 313.735px;" class="animable"></path></g><path d="M176.47,361.85h-42a1.07,1.07,0,0,1-1.08-1.07h0a1.08,1.08,0,0,1,1.08-1.08h42a1.08,1.08,0,0,1,1.08,1.08h0A1.07,1.07,0,0,1,176.47,361.85Z" style="fill: rgb(38, 50, 56); transform-origin: 155.47px 360.775px;" id="elt2t2zg6y81" class="animable"></path><g id="el2qi9oyw1k5h"><path d="M176.47,361.85h-42a1.07,1.07,0,0,1-1.08-1.07h0a1.08,1.08,0,0,1,1.08-1.08h42a1.08,1.08,0,0,1,1.08,1.08h0A1.07,1.07,0,0,1,176.47,361.85Z" style="fill: rgb(255, 255, 255); opacity: 0.4; transform-origin: 155.47px 360.775px;" class="animable"></path></g><path d="M169.66,366.16H134.48a1.08,1.08,0,0,1-1.08-1.08h0a1.07,1.07,0,0,1,1.08-1.07h35.18a1.07,1.07,0,0,1,1.07,1.07h0A1.07,1.07,0,0,1,169.66,366.16Z" style="fill: rgb(38, 50, 56); transform-origin: 152.065px 365.085px;" id="elp7cusnlk20r" class="animable"></path><g id="el328rhk5t3dq"><path d="M169.66,366.16H134.48a1.08,1.08,0,0,1-1.08-1.08h0a1.07,1.07,0,0,1,1.08-1.07h35.18a1.07,1.07,0,0,1,1.07,1.07h0A1.07,1.07,0,0,1,169.66,366.16Z" style="fill: rgb(255, 255, 255); opacity: 0.4; transform-origin: 152.065px 365.085px;" class="animable"></path></g><path d="M171.88,370.46h-37.4a1.07,1.07,0,0,1-1.08-1.07h0a1.08,1.08,0,0,1,1.08-1.08h37.4a1.07,1.07,0,0,1,1.07,1.08h0A1.07,1.07,0,0,1,171.88,370.46Z" style="fill: rgb(38, 50, 56); transform-origin: 153.175px 369.385px;" id="ely7yngm5v2j" class="animable"></path><g id="elm6ip44l9m2"><path d="M171.88,370.46h-37.4a1.07,1.07,0,0,1-1.08-1.07h0a1.08,1.08,0,0,1,1.08-1.08h37.4a1.07,1.07,0,0,1,1.07,1.08h0A1.07,1.07,0,0,1,171.88,370.46Z" style="fill: rgb(255, 255, 255); opacity: 0.4; transform-origin: 153.175px 369.385px;" class="animable"></path></g><path d="M149.71,252.16a2,2,0,0,0-2.82,2.83,2,2,0,0,0,2.54.23.5.5,0,0,0,.12.28l1.35,1.34a.47.47,0,1,0,.67-.67l-1.34-1.35a.5.5,0,0,0-.28-.12A2,2,0,0,0,149.71,252.16Zm-.4,2.42a1.42,1.42,0,1,1,0-2A1.43,1.43,0,0,1,149.31,254.58Z" style="fill: rgb(64, 123, 255); transform-origin: 149.039px 254.312px;" id="elot2nls9r5xp" class="animable"></path><g id="ellvy4iaw55eo"><path d="M149.71,252.16a2,2,0,0,0-2.82,2.83,2,2,0,0,0,2.54.23.5.5,0,0,0,.12.28l1.35,1.34a.47.47,0,1,0,.67-.67l-1.34-1.35a.5.5,0,0,0-.28-.12A2,2,0,0,0,149.71,252.16Zm-.4,2.42a1.42,1.42,0,1,1,0-2A1.43,1.43,0,0,1,149.31,254.58Z" style="opacity: 0.2; transform-origin: 149.039px 254.312px;" class="animable"></path></g></g><g id="freepik--Arrow--inject-6" class="animable" style="transform-origin: 353.675px 331.011px;"><path d="M365.66,315h0a2,2,0,0,0-2,2v19.46H347.32l3.19-3.19a2,2,0,0,0,0-2.83h0a2,2,0,0,0-2.82,0l-8,8,8,8a2,2,0,0,0,2.82,0h0a2,2,0,0,0,0-2.83l-3.19-3.19h20.34V317A2,2,0,0,0,365.66,315Z" style="fill: rgb(64, 123, 255); transform-origin: 353.675px 331.011px;" id="eld18ssughf8q" class="animable"></path><g id="elxnr5abqrrx"><path d="M365.66,315h0a2,2,0,0,0-2,2v19.46H347.32l3.19-3.19a2,2,0,0,0,0-2.83h0a2,2,0,0,0-2.82,0l-8,8,8,8a2,2,0,0,0,2.82,0h0a2,2,0,0,0,0-2.83l-3.19-3.19h20.34V317A2,2,0,0,0,365.66,315Z" style="fill: rgb(255, 255, 255); opacity: 0.7; transform-origin: 353.675px 331.011px;" class="animable"></path></g></g><g id="freepik--File--inject-6" class="animable" style="transform-origin: 410.345px 132px;"><g id="el2s14qs4bfzj"><polygon points="420.42 104.32 420.42 113.78 429.88 113.78 420.42 104.32" style="fill: rgb(255, 255, 255); opacity: 0.4; transform-origin: 425.15px 109.05px;" class="animable"></polygon></g><path d="M430.27,117.62l.07,41a1,1,0,0,1-.95,1l-37.94.07a1,1,0,0,1-1-1l-.1-53.38a1,1,0,0,1,1-1l25.56,0Z" style="fill: rgb(64, 123, 255); transform-origin: 410.345px 132px;" id="eldl0gxcaq086" class="animable"></path><g id="elr35oyg0dsm"><g style="opacity: 0.7; transform-origin: 410.345px 132px;" class="animable"><path d="M430.27,117.62l.07,41a1,1,0,0,1-.95,1l-37.94.07a1,1,0,0,1-1-1l-.1-53.38a1,1,0,0,1,1-1l25.56,0Z" style="fill: rgb(255, 255, 255); transform-origin: 410.345px 132px;" id="elal33ttno33f" class="animable"></path></g></g><path d="M416.93,104.32l0,12.38a1,1,0,0,0,1,1l12.34,0Z" style="fill: rgb(64, 123, 255); transform-origin: 423.6px 111.01px;" id="elypag0qps1v" class="animable"></path><g id="elxby5v1nkfij"><path d="M416.93,104.32l0,12.38a1,1,0,0,0,1,1l12.34,0Z" style="fill: rgb(255, 255, 255); opacity: 0.9; transform-origin: 423.6px 111.01px;" class="animable"></path></g><g id="elx7tpyruvs7f"><g style="opacity: 0.8; transform-origin: 410.465px 134.915px;" class="animable"><path d="M420.58,129.11H400.39a1.18,1.18,0,0,1-1.18-1.18h0a1.18,1.18,0,0,1,1.18-1.18h20.19a1.18,1.18,0,0,1,1.18,1.18h0A1.18,1.18,0,0,1,420.58,129.11Z" style="fill: rgb(255, 255, 255); transform-origin: 410.485px 127.93px;" id="ely6p2bzcqa4" class="animable"></path><path d="M420.35,135.88h-20a1.17,1.17,0,0,1-1.18-1.17h0a1.18,1.18,0,0,1,1.18-1.18h20a1.18,1.18,0,0,1,1.18,1.18h0A1.17,1.17,0,0,1,420.35,135.88Z" style="fill: rgb(255, 255, 255); transform-origin: 410.35px 134.705px;" id="elfsme234fbqp" class="animable"></path><path d="M419.92,143.08H400.39a1.18,1.18,0,0,1-1.18-1.18h0a1.18,1.18,0,0,1,1.18-1.18h19.53a1.18,1.18,0,0,1,1.18,1.18h0A1.18,1.18,0,0,1,419.92,143.08Z" style="fill: rgb(255, 255, 255); transform-origin: 410.155px 141.9px;" id="eld17wg2h3a18" class="animable"></path></g></g></g><g id="freepik--Image--inject-6" class="animable" style="transform-origin: 270.045px 141.39px;"><rect x="242.47" y="123.26" width="55.15" height="36.26" style="fill: rgb(64, 123, 255); transform-origin: 270.045px 141.39px;" id="elj0lzg606em" class="animable"></rect><g id="elo3quwaxtcvp"><rect x="242.47" y="123.26" width="55.15" height="36.26" style="fill: rgb(255, 255, 255); opacity: 0.7; transform-origin: 270.045px 141.39px;" class="animable"></rect></g><polygon points="261.33 143.03 244.84 159.52 277.82 159.52 261.33 143.03" style="fill: rgb(64, 123, 255); transform-origin: 261.33px 151.275px;" id="el0wpx26k04fe" class="animable"></polygon><g id="ellxu9rrgrqvb"><polygon points="261.33 143.03 244.84 159.52 277.82 159.52 261.33 143.03" style="fill: rgb(255, 255, 255); opacity: 0.3; transform-origin: 261.33px 151.275px;" class="animable"></polygon></g><polygon points="297.05 159.52 280.69 131.6 264.33 159.52 297.05 159.52" style="fill: rgb(64, 123, 255); transform-origin: 280.69px 145.56px;" id="eldgiaz2oumrd" class="animable"></polygon><g id="elck04tsrj9on"><polygon points="297.05 159.52 280.69 131.6 264.33 159.52 297.05 159.52" style="fill: rgb(255, 255, 255); opacity: 0.5; transform-origin: 280.69px 145.56px;" class="animable"></polygon></g><g id="elw3mnskfeodf"><circle cx="265.69" cy="134.87" r="3.31" style="fill: rgb(255, 255, 255); opacity: 0.8; transform-origin: 265.69px 134.87px;" class="animable"></circle></g></g><g id="freepik--Gears--inject-6" class="animable" style="transform-origin: 219.07px 191.85px;"><path d="M225.69,175.29c0-.4,0-.79-.05-1.19l5-3.44a20.59,20.59,0,0,0-1.12-3.49l-6.1.17a15.55,15.55,0,0,0-1.4-1.93l2-5.73a20.2,20.2,0,0,0-3-2.16l-4.83,3.71a15.85,15.85,0,0,0-2.27-.74l-1.72-5.83q-.92-.09-1.83-.09c-.62,0-1.23,0-1.84.09l-1.72,5.83a15.85,15.85,0,0,0-2.27.74l-4.83-3.71a20.2,20.2,0,0,0-3,2.16l2,5.73a16.65,16.65,0,0,0-1.4,1.93l-6.09-.17a20.62,20.62,0,0,0-1.13,3.49l5,3.44c0,.4-.05.79-.05,1.19s0,.8.05,1.2l-5,3.44a20.91,20.91,0,0,0,1.13,3.49l6.09-.17a16.65,16.65,0,0,0,1.4,1.93l-2,5.73a21,21,0,0,0,3,2.16l4.83-3.71a14.65,14.65,0,0,0,2.27.73l1.72,5.84c.61,0,1.22.09,1.84.09s1.22,0,1.83-.09l1.72-5.84a14.65,14.65,0,0,0,2.27-.73l4.83,3.71a21,21,0,0,0,3-2.16l-2-5.73a15.55,15.55,0,0,0,1.4-1.93l6.1.17a20.88,20.88,0,0,0,1.12-3.49l-5-3.44C225.67,176.09,225.69,175.7,225.69,175.29Zm-15.22,7a7,7,0,1,1,7-7A7,7,0,0,1,210.47,182.29Z" style="fill: rgb(64, 123, 255); transform-origin: 210.365px 175.295px;" id="elvy70cgacp8l" class="animable"></path><g id="elo3a0gjlknwe"><path d="M225.69,175.29c0-.4,0-.79-.05-1.19l5-3.44a20.59,20.59,0,0,0-1.12-3.49l-6.1.17a15.55,15.55,0,0,0-1.4-1.93l2-5.73a20.2,20.2,0,0,0-3-2.16l-4.83,3.71a15.85,15.85,0,0,0-2.27-.74l-1.72-5.83q-.92-.09-1.83-.09c-.62,0-1.23,0-1.84.09l-1.72,5.83a15.85,15.85,0,0,0-2.27.74l-4.83-3.71a20.2,20.2,0,0,0-3,2.16l2,5.73a16.65,16.65,0,0,0-1.4,1.93l-6.09-.17a20.62,20.62,0,0,0-1.13,3.49l5,3.44c0,.4-.05.79-.05,1.19s0,.8.05,1.2l-5,3.44a20.91,20.91,0,0,0,1.13,3.49l6.09-.17a16.65,16.65,0,0,0,1.4,1.93l-2,5.73a21,21,0,0,0,3,2.16l4.83-3.71a14.65,14.65,0,0,0,2.27.73l1.72,5.84c.61,0,1.22.09,1.84.09s1.22,0,1.83-.09l1.72-5.84a14.65,14.65,0,0,0,2.27-.73l4.83,3.71a21,21,0,0,0,3-2.16l-2-5.73a15.55,15.55,0,0,0,1.4-1.93l6.1.17a20.88,20.88,0,0,0,1.12-3.49l-5-3.44C225.67,176.09,225.69,175.7,225.69,175.29Zm-15.22,7a7,7,0,1,1,7-7A7,7,0,0,1,210.47,182.29Z" style="fill: rgb(255, 255, 255); opacity: 0.7; transform-origin: 210.365px 175.295px;" class="animable"></path></g><path d="M244.81,199.79c0-.25,0-.51,0-.76l3.24-2.22a13.15,13.15,0,0,0-.73-2.25l-3.92.11a10.13,10.13,0,0,0-.91-1.24l1.31-3.7a14.46,14.46,0,0,0-1.9-1.39l-3.11,2.39a10.08,10.08,0,0,0-1.47-.47l-1.1-3.76a11.73,11.73,0,0,0-2.37,0l-1.11,3.76a10.36,10.36,0,0,0-1.46.47l-3.11-2.39a14.56,14.56,0,0,0-1.91,1.39l1.32,3.7a10.13,10.13,0,0,0-.91,1.24l-3.92-.11a13.15,13.15,0,0,0-.73,2.25l3.24,2.22c0,.25,0,.51,0,.76s0,.52,0,.77L222,202.78a13.15,13.15,0,0,0,.73,2.25l3.92-.11a10.13,10.13,0,0,0,.91,1.24l-1.32,3.7a14.56,14.56,0,0,0,1.91,1.39l3.11-2.4a9,9,0,0,0,1.47.48l1.1,3.76c.39,0,.79,0,1.18,0s.8,0,1.19,0l1.1-3.76a9,9,0,0,0,1.47-.48l3.11,2.4a14.46,14.46,0,0,0,1.9-1.39l-1.31-3.7a10.13,10.13,0,0,0,.91-1.24l3.92.11a13.15,13.15,0,0,0,.73-2.25l-3.24-2.22C244.8,200.31,244.81,200.05,244.81,199.79ZM235,204.3a4.51,4.51,0,1,1,4.51-4.51A4.5,4.5,0,0,1,235,204.3Z" style="fill: rgb(64, 123, 255); transform-origin: 235.025px 199.765px;" id="el3zyqwj7dvlm" class="animable"></path><g id="elcjh7ivepck"><path d="M244.81,199.79c0-.25,0-.51,0-.76l3.24-2.22a13.15,13.15,0,0,0-.73-2.25l-3.92.11a10.13,10.13,0,0,0-.91-1.24l1.31-3.7a14.46,14.46,0,0,0-1.9-1.39l-3.11,2.39a10.08,10.08,0,0,0-1.47-.47l-1.1-3.76a11.73,11.73,0,0,0-2.37,0l-1.11,3.76a10.36,10.36,0,0,0-1.46.47l-3.11-2.39a14.56,14.56,0,0,0-1.91,1.39l1.32,3.7a10.13,10.13,0,0,0-.91,1.24l-3.92-.11a13.15,13.15,0,0,0-.73,2.25l3.24,2.22c0,.25,0,.51,0,.76s0,.52,0,.77L222,202.78a13.15,13.15,0,0,0,.73,2.25l3.92-.11a10.13,10.13,0,0,0,.91,1.24l-1.32,3.7a14.56,14.56,0,0,0,1.91,1.39l3.11-2.4a9,9,0,0,0,1.47.48l1.1,3.76c.39,0,.79,0,1.18,0s.8,0,1.19,0l1.1-3.76a9,9,0,0,0,1.47-.48l3.11,2.4a14.46,14.46,0,0,0,1.9-1.39l-1.31-3.7a10.13,10.13,0,0,0,.91-1.24l3.92.11a13.15,13.15,0,0,0,.73-2.25l-3.24-2.22C244.8,200.31,244.81,200.05,244.81,199.79ZM235,204.3a4.51,4.51,0,1,1,4.51-4.51A4.5,4.5,0,0,1,235,204.3Z" style="fill: rgb(255, 255, 255); opacity: 0.7; transform-origin: 235.025px 199.765px;" class="animable"></path></g><path d="M213.28,201.16v20.33l-3.2-3.19a2,2,0,0,0-2.82,0h0a2,2,0,0,0,0,2.83l8,8,8-8a2,2,0,0,0,0-2.83h0a2,2,0,0,0-2.82,0l-3.19,3.19V201.16a2,2,0,0,0-2-2h0A2,2,0,0,0,213.28,201.16Z" style="fill: rgb(64, 123, 255); transform-origin: 215.26px 214.145px;" id="elr47uo4edwj8" class="animable"></path><g id="elnvkl3ja5b5h"><path d="M213.28,201.16v20.33l-3.2-3.19a2,2,0,0,0-2.82,0h0a2,2,0,0,0,0,2.83l8,8,8-8a2,2,0,0,0,0-2.83h0a2,2,0,0,0-2.82,0l-3.19,3.19V201.16a2,2,0,0,0-2-2h0A2,2,0,0,0,213.28,201.16Z" style="fill: rgb(255, 255, 255); opacity: 0.7; transform-origin: 215.26px 214.145px;" class="animable"></path></g></g><g id="freepik--Search--inject-6" class="animable" style="transform-origin: 149.015px 225.145px;"><rect x="112.24" y="213.02" width="73.55" height="24.25" rx="6.86" style="fill: rgb(64, 123, 255); transform-origin: 149.015px 225.145px;" id="elwzu5srqbo49" class="animable"></rect><g id="el5g7ohn3b4ex"><rect x="112.24" y="213.02" width="73.55" height="24.25" rx="6.86" style="fill: rgb(255, 255, 255); opacity: 0.7; transform-origin: 149.015px 225.145px;" class="animable"></rect></g><g id="elhjk73wvd20d"><path d="M151.24,218.43a6.33,6.33,0,1,0-.91,9.7,1.46,1.46,0,0,0,.4.87l4.27,4.27a1.51,1.51,0,0,0,2.14-2.13l-4.27-4.27a1.47,1.47,0,0,0-.88-.41A6.32,6.32,0,0,0,151.24,218.43ZM150,226.08a4.5,4.5,0,1,1,0-6.36A4.49,4.49,0,0,1,150,226.08Z" style="fill: rgb(255, 255, 255); opacity: 0.8; transform-origin: 148.994px 225.133px;" class="animable"></path></g></g><defs>     <filter id="active" height="200%">         <feMorphology in="SourceAlpha" result="DILATED" operator="dilate" radius="2"></feMorphology>                <feFlood flood-color="#32DFEC" flood-opacity="1" result="PINK"></feFlood>        <feComposite in="PINK" in2="DILATED" operator="in" result="OUTLINE"></feComposite>        <feMerge>            <feMergeNode in="OUTLINE"></feMergeNode>            <feMergeNode in="SourceGraphic"></feMergeNode>        </feMerge>    </filter>    <filter id="hover" height="200%">        <feMorphology in="SourceAlpha" result="DILATED" operator="dilate" radius="2"></feMorphology>                <feFlood flood-color="#ff0000" flood-opacity="0.5" result="PINK"></feFlood>        <feComposite in="PINK" in2="DILATED" operator="in" result="OUTLINE"></feComposite>        <feMerge>            <feMergeNode in="OUTLINE"></feMergeNode>            <feMergeNode in="SourceGraphic"></feMergeNode>        </feMerge>            <feColorMatrix type="matrix" values="0   0   0   0   0                0   1   0   0   0                0   0   0   0   0                0   0   0   1   0 "></feColorMatrix>    </filter></defs></svg>